<svg xmlns="http://www.w3.org/2000/svg" viewBox="0 0 512 512"><rect x="42" y="42" width="428" height="428" rx="104" fill="#0A1728" stroke="#35D2FF" stroke-width="10"/><path d="M96 96h320v320H96z" fill="#07111E" stroke="#35D2FF" stroke-width="8"/><g stroke="#35D2FF" stroke-width="2" opacity=".5"><path d="M116 96v320M136 96v320M156 96v320M176 96v320M196 96v320M216 96v320M236 96v320M256 96v320M276 96v320M296 96v320M316 96v320M336 96v320M356 96v320M376 96v320M396 96v320M96 116h320M96 136h320M96 156h320M96 176h320M96 196h320M96 216h320M96 236h320M96 256h320M96 276h320M96 296h320M96 316h320M96 336h320M96 356h320M96 376h320M96 396h320"/></g><g stroke="#35D2FF" stroke-width="8"><path d="M176 96v320M256 96v320M336 96v320M96 176h320M96 256h320M96 336h320"/></g><rect x="116" y="136" width="20" height="20" fill="#FFC73D"/><rect x="276" y="196" width="20" height="20" fill="#FFC73D"/><rect x="196" y="276" width="20" height="20" fill="#FFC73D"/><rect x="356" y="356" width="20" height="20" fill="#FFC73D"/></svg>